<?xml version="1.0" encoding="utf-8"?>
<!-- Svg Vector Icons : http://www.onlinewebfonts.com/icon -->
<!DOCTYPE svg PUBLIC "-//W3C//DTD SVG 1.1//EN" "http://www.w3.org/Graphics/SVG/1.1/DTD/svg11.dtd">
<svg version="1.1" xmlns="http://www.w3.org/2000/svg" xmlns:xlink="http://www.w3.org/1999/xlink" x="0px" y="0px" viewBox="0 0 1000 1000" enable-background="new 0 0 1000 1000" xml:space="preserve">
<metadata> Svg Vector Icons : http://www.onlinewebfonts.com/icon </metadata>
<g><path d="M500,10C229.4,10,10,229.4,10,500c0,270.6,219.4,490,490,490c270.6,0,490-219.4,490-490C990,229.4,770.6,10,500,10z M775.6,622.5h-437l60.2,34.7c14.6,8.5,19.7,27.2,11.2,41.8c-8.5,14.7-27.2,19.7-41.8,11.2l-159.1-91.9c-1.1-0.7-1.8-1.7-2.8-2.5c-1.7-1.3-3.3-2.5-4.7-4.2c-1.3-1.5-2.2-3.1-3.2-4.8c-1-1.7-1.9-3.3-2.5-5.2c-0.7-2-1-4-1.2-6.1c-0.2-1.3-0.8-2.4-0.8-3.8c0-0.7,0.3-1.2,0.4-1.8c0.1-2,0.7-3.9,1.2-5.9c0.5-2.1,1-4,2-5.9c0.3-0.6,0.3-1.2,0.6-1.7c0.6-1.1,1.7-1.8,2.5-2.8c1.3-1.7,2.6-3.4,4.2-4.8c1.5-1.3,3.1-2.2,4.7-3.2c1.7-1,3.4-1.9,5.3-2.6c2-0.7,4-1,6.1-1.2c1.3-0.2,2.4-0.8,3.8-0.8h551.3c16.9,0,30.6,13.7,30.6,30.6C806.3,608.8,792.5,622.5,775.6,622.5z M805.9,409.9c-0.1,2-0.7,3.9-1.2,5.9c-0.5,2-1,4-2,5.8c-0.3,0.6-0.3,1.2-0.6,1.7c-0.7,1.1-1.7,1.8-2.5,2.8c-1.3,1.7-2.6,3.4-4.2,4.8c-1.5,1.3-3.1,2.2-4.7,3.2c-1.7,1-3.4,1.9-5.3,2.6c-2,0.7-4,1-6.1,1.2c-1.3,0.2-2.4,0.8-3.8,0.8H224.4c-16.9,0-30.6-13.7-30.6-30.6c0-16.9,13.7-30.6,30.6-30.6h437l-60.2-34.7c-14.6-8.5-19.7-27.2-11.2-41.8c8.5-14.7,27.2-19.7,41.8-11.2l159.1,91.9c1.1,0.7,1.8,1.7,2.9,2.5c1.7,1.3,3.3,2.5,4.7,4.2c1.3,1.5,2.3,3.1,3.2,4.8c1,1.7,1.9,3.3,2.5,5.2c0.7,2,1,4,1.2,6.1c0.2,1.3,0.8,2.4,0.8,3.7C806.3,408.8,805.9,409.3,805.9,409.9z"/></g>
</svg>